<svg width="92" height="92" viewBox="0 0 92 92" fill="none" xmlns="http://www.w3.org/2000/svg">
<rect x="17" y="17" width="58" height="58" rx="29" stroke="white" stroke-width="6"/>
<g filter="url(#filter0_d_1_1109)">
<rect x="20" y="20" width="52" height="52" rx="26" fill="#2B63A8" shape-rendering="crispEdges"/>
<g clip-path="url(#clip0_1_1109)">
<path d="M52 37C53.0609 37 54.0783 37.4214 54.8284 38.1716C55.5786 38.9217 56 39.9391 56 41V49C56 50.0609 55.5786 51.0783 54.8284 51.8284C54.0783 52.5786 53.0609 53 52 53H47.276L42.514 55.857C42.3706 55.9431 42.2079 55.9918 42.0408 55.9987C41.8737 56.0056 41.7075 55.9705 41.5575 55.8966C41.4074 55.8227 41.2783 55.7123 41.182 55.5756C41.0857 55.4389 41.0251 55.2802 41.006 55.114L41 55V53H40C38.9738 53 37.9868 52.6056 37.2432 51.8983C36.4996 51.191 36.0563 50.225 36.005 49.2L36 49V41C36 39.9391 36.4214 38.9217 37.1716 38.1716C37.9217 37.4214 38.9391 37 40 37H52ZM49.2 46.286C49.0106 46.1004 48.7553 45.9976 48.4901 46.0002C48.2249 46.0028 47.9717 46.1107 47.786 46.3C47.5532 46.5377 47.2753 46.7265 46.9687 46.8554C46.662 46.9843 46.3327 47.0507 46 47.0507C45.6673 47.0507 45.338 46.9843 45.0313 46.8554C44.7247 46.7265 44.4468 46.5377 44.214 46.3C44.0274 46.115 43.7755 46.0109 43.5128 46.0102C43.25 46.0095 42.9975 46.1122 42.8099 46.2961C42.6223 46.4801 42.5146 46.7305 42.5101 46.9932C42.5057 47.2559 42.6048 47.5098 42.786 47.7C43.205 48.1275 43.705 48.4672 44.2569 48.6991C44.8088 48.9309 45.4014 49.0504 46 49.0504C46.5986 49.0504 47.1912 48.9309 47.7431 48.6991C48.295 48.4672 48.795 48.1275 49.214 47.7C49.3996 47.5106 49.5024 47.2553 49.4998 46.9901C49.4972 46.7249 49.3893 46.4717 49.2 46.286ZM43.51 42H43.5C43.2348 42 42.9804 42.1054 42.7929 42.2929C42.6054 42.4804 42.5 42.7348 42.5 43C42.5 43.2652 42.6054 43.5196 42.7929 43.7071C42.9804 43.8946 43.2348 44 43.5 44H43.51C43.7752 44 44.0296 43.8946 44.2171 43.7071C44.4046 43.5196 44.51 43.2652 44.51 43C44.51 42.7348 44.4046 42.4804 44.2171 42.2929C44.0296 42.1054 43.7752 42 43.51 42ZM48.51 42H48.5C48.2348 42 47.9804 42.1054 47.7929 42.2929C47.6054 42.4804 47.5 42.7348 47.5 43C47.5 43.2652 47.6054 43.5196 47.7929 43.7071C47.9804 43.8946 48.2348 44 48.5 44H48.51C48.7752 44 49.0296 43.8946 49.2171 43.7071C49.4046 43.5196 49.51 43.2652 49.51 43C49.51 42.7348 49.4046 42.4804 49.2171 42.2929C49.0296 42.1054 48.7752 42 48.51 42Z" fill="white"/>
</g>
</g>
<defs>
<filter id="filter0_d_1_1109" x="0" y="0" width="92" height="92" filterUnits="userSpaceOnUse" color-interpolation-filters="sRGB">
<feFlood flood-opacity="0" result="BackgroundImageFix"/>
<feColorMatrix in="SourceAlpha" type="matrix" values="0 0 0 0 0 0 0 0 0 0 0 0 0 0 0 0 0 0 127 0" result="hardAlpha"/>
<feOffset/>
<feGaussianBlur stdDeviation="10"/>
<feComposite in2="hardAlpha" operator="out"/>
<feColorMatrix type="matrix" values="0 0 0 0 0.168627 0 0 0 0 0.388235 0 0 0 0 0.658824 0 0 0 0.25 0"/>
<feBlend mode="normal" in2="BackgroundImageFix" result="effect1_dropShadow_1_1109"/>
<feBlend mode="normal" in="SourceGraphic" in2="effect1_dropShadow_1_1109" result="shape"/>
</filter>
<clipPath id="clip0_1_1109">
<rect width="24" height="24" fill="white" transform="translate(34 34)"/>
</clipPath>
</defs>
</svg>
