<svg width="24" height="24" viewBox="0 0 24 24" fill="none" xmlns="http://www.w3.org/2000/svg">
<path d="M19 15.9502H21C21.6 15.9502 22 15.5502 22 14.9502V11.9502C22 11.0502 21.3 10.2502 20.5 10.0502C18.7 9.5502 16 8.9502 16 8.9502C16 8.9502 14.7 7.5502 13.8 6.6502C13.3 6.2502 12.7 5.9502 12 5.9502H5C4.4 5.9502 3.9 6.3502 3.6 6.8502L2.2 9.7502C2.06758 10.1364 2 10.5419 2 10.9502V14.9502C2 15.5502 2.4 15.9502 3 15.9502H5" stroke="#6B7280" stroke-width="1.5" stroke-linecap="round" stroke-linejoin="round"/>
<path d="M7 17.9502C8.10457 17.9502 9 17.0548 9 15.9502C9 14.8456 8.10457 13.9502 7 13.9502C5.89543 13.9502 5 14.8456 5 15.9502C5 17.0548 5.89543 17.9502 7 17.9502Z" stroke="#6B7280" stroke-width="1.5" stroke-linecap="round" stroke-linejoin="round"/>
<path d="M9 15.9502H15" stroke="#6B7280" stroke-width="1.5" stroke-linecap="round" stroke-linejoin="round"/>
<path d="M17 17.9502C18.1046 17.9502 19 17.0548 19 15.9502C19 14.8456 18.1046 13.9502 17 13.9502C15.8954 13.9502 15 14.8456 15 15.9502C15 17.0548 15.8954 17.9502 17 17.9502Z" stroke="#6B7280" stroke-width="1.5" stroke-linecap="round" stroke-linejoin="round"/>
</svg>
