<svg width="20" height="20" viewBox="0 0 20 20" fill="none" xmlns="http://www.w3.org/2000/svg">
<path d="M10.2568 1.9375C11.439 0.755465 13.0612 0.310654 14.5947 0.577148L11.3916 3.78027L11.7451 4.13379L15.1299 7.51758L15.4834 7.87207L15.8369 7.51758L18.6387 4.70508C18.8722 6.20789 18.4215 7.79021 17.2656 8.94629L17.2646 8.94727C16.5732 9.6407 15.6917 10.1136 14.7314 10.3057C13.7711 10.4977 12.7751 10.4006 11.8701 10.0264L11.5293 9.88574L11.2939 10.1689L4.82129 17.9688C3.82773 18.9504 2.23316 18.948 1.24414 17.959C0.253694 16.9685 0.25378 15.3737 1.2334 14.3936L9.03418 7.9082L9.31738 7.67383L9.17773 7.33398C8.43606 5.53433 8.79638 3.39795 10.2568 1.9375Z" stroke="#8599B3"/>
</svg>
