<svg width="46" height="46" viewBox="0 0 46 46" fill="none" xmlns="http://www.w3.org/2000/svg">
<rect width="46" height="46" rx="23" fill="#E5E7EB"/>
<path d="M31.7139 31.9986C30.6397 33.4865 29.5008 34.9384 27.7665 34.9624C26.0322 34.9984 25.4756 34.0145 23.5084 34.0145C21.5282 34.0145 20.9199 34.9384 19.2762 34.9984C17.5807 35.0584 16.2994 33.4145 15.2122 31.9626C12.9991 28.9988 11.3036 23.5392 13.5815 19.8674C14.7075 18.0435 16.7265 16.8916 18.9138 16.8556C20.5704 16.8316 22.1494 17.8995 23.1719 17.8995C24.1814 17.8995 26.0969 16.6156 28.103 16.8076C28.9442 16.8436 31.2998 17.1196 32.814 19.1835C32.6976 19.2555 30.0055 20.7194 30.0314 23.7552C30.0702 27.3789 33.4612 28.5908 33.5 28.6028C33.4612 28.6868 32.9564 30.3307 31.7139 31.9986ZM24.3238 12.7999C25.2686 11.8039 26.8346 11.048 28.1289 11C28.2971 12.4039 27.6888 13.8198 26.7828 14.8277C25.8898 15.8477 24.4144 16.6396 22.9648 16.5316C22.7707 15.1517 23.4954 13.7118 24.3238 12.7999Z" fill="black"/>
</svg>
