<svg width="46" height="46" viewBox="0 0 46 46" fill="none" xmlns="http://www.w3.org/2000/svg">
<circle cx="23" cy="23" r="23" fill="#E5E7EB"/>
<g clip-path="url(#clip0_1_2555)">
<path d="M16.3189 25.5034L15.4835 28.6221L12.4301 28.6867C11.5176 26.9942 11 25.0577 11 22.9999C11 21.01 11.4839 19.1335 12.3418 17.4812H12.3424L15.0608 17.9796L16.2516 20.6816C16.0024 21.4082 15.8665 22.1882 15.8665 22.9999C15.8666 23.8808 16.0262 24.7247 16.3189 25.5034Z" fill="#FBBB00"/>
<path d="M34.7903 20.7583C34.9281 21.4842 35 22.2339 35 23.0001C35 23.8592 34.9097 24.6972 34.7376 25.5056C34.1534 28.2563 32.627 30.6583 30.5125 32.3581L30.5119 32.3574L27.088 32.1827L26.6034 29.1576C28.0064 28.3348 29.1029 27.0471 29.6805 25.5056H23.2638V20.7583H34.7903Z" fill="#518EF8"/>
<path d="M30.5119 32.3575L30.5125 32.3581C28.4561 34.0111 25.8437 35.0001 23 35.0001C18.4301 35.0001 14.4569 32.4458 12.4301 28.6869L16.3189 25.5037C17.3323 28.2083 19.9413 30.1336 23 30.1336C24.3147 30.1336 25.5464 29.7781 26.6033 29.1577L30.5119 32.3575Z" fill="#28B446"/>
<path d="M30.6595 13.7626L26.7721 16.9453C25.6782 16.2615 24.3852 15.8666 23 15.8666C19.8721 15.8666 17.2143 17.8802 16.2516 20.6818L12.3424 17.4813H12.3417C14.3389 13.6308 18.3622 11 23 11C25.9116 11 28.5813 12.0372 30.6595 13.7626Z" fill="#F14336"/>
</g>
<defs>
<clipPath id="clip0_1_2555">
<rect width="24" height="24" fill="white" transform="translate(11 11)"/>
</clipPath>
</defs>
</svg>
