<svg width="20" height="21" viewBox="0 0 20 21" fill="none" xmlns="http://www.w3.org/2000/svg">
<path d="M4.28921 5.72091L4.23523 5.63759C4.25298 5.58441 4.32544 5.52804 4.32544 5.52804L4.37978 5.61277C4.32109 5.65319 4.28921 5.72091 4.28921 5.72091ZM4.95944 5.05117L5.03878 5.1742L4.98118 5.2093L4.90183 5.08663L4.95944 5.05117ZM5.55938 4.69734L5.62242 4.79519C5.36991 4.94091 5.16087 5.07989 5.16087 5.07989L5.09783 4.98204C5.28079 4.85015 5.55938 4.69734 5.55938 4.69734ZM5.75502 4.56049L5.834 4.68316L5.77639 4.71861L5.69741 4.59594L5.75502 4.56049ZM6.53502 4.2187L6.589 4.30238C6.589 4.30238 6.51219 4.30131 6.44952 4.3357L6.39518 4.25132C6.39518 4.25132 6.47814 4.21126 6.53502 4.2187ZM5.40251 4.96786L5.41483 4.96041C5.90319 4.65905 6.31982 4.45838 6.58393 4.34315C6.62233 4.32613 6.6629 4.31762 6.70348 4.31656L6.60747 4.1673C6.55965 4.15347 6.50712 4.15595 6.45966 4.17651C6.19845 4.29068 5.78654 4.48887 5.30288 4.78739L5.29129 4.79448C4.808 5.09266 4.44717 5.37133 4.22943 5.55214C4.18994 5.58547 4.16495 5.6305 4.15698 5.67801L4.25334 5.82763C4.27182 5.79288 4.29718 5.76062 4.32942 5.73403C4.54969 5.55073 4.91415 5.26922 5.40251 4.96786ZM5.59126 6.59167L6.05825 7.31671C6.10209 7.26885 6.14955 7.22985 6.14955 7.22985L5.60467 6.3839C5.60467 6.3839 5.5246 6.4885 5.59126 6.59167ZM11.9055 7.22985C11.9055 7.22985 11.9534 7.26885 11.9968 7.31671L12.4642 6.59167C12.5305 6.4885 12.4504 6.3839 12.4504 6.3839L11.9055 7.22985ZM9.40142 8.85047L9.38874 8.85082C9.39236 8.85153 9.39635 8.85224 9.39997 8.85295L9.40142 8.85047ZM11.4563 6.37894C11.3748 6.50516 11.4099 6.67002 11.5331 6.75511C11.5284 6.75263 11.5241 6.7505 11.5197 6.74802C11.3867 6.66577 11.3469 6.49346 11.4309 6.36334C11.5146 6.23287 11.6907 6.19387 11.824 6.27577C11.828 6.27861 11.832 6.2818 11.836 6.28463C11.7048 6.21266 11.5371 6.25272 11.4563 6.37894ZM11.8382 6.21904C11.686 6.12509 11.4809 6.17579 11.3802 6.33214C11.2799 6.4885 11.3215 6.69094 11.4737 6.78489C11.6255 6.87885 11.8305 6.82815 11.9313 6.67179C12.032 6.51544 11.9903 6.313 11.8382 6.21904ZM11.2212 5.82514L10.7542 6.54983C10.8172 6.56791 10.8737 6.59309 10.8737 6.59309L11.4186 5.74714C11.4186 5.74714 11.2878 5.72197 11.2212 5.82514ZM6.63682 5.74714L7.1817 6.59309C7.1817 6.59309 7.23821 6.56791 7.30125 6.54983L6.8339 5.82514C6.7676 5.72197 6.63682 5.74714 6.63682 5.74714ZM13.7662 5.72091C13.7662 5.72091 13.734 5.65319 13.6753 5.61277L13.7296 5.52804C13.7296 5.52804 13.8025 5.58441 13.8199 5.63759L13.7662 5.72091ZM13.0739 5.2093L13.0167 5.1742L13.0956 5.05117L13.1532 5.08663L13.0739 5.2093ZM12.8942 5.07989C12.8942 5.07989 12.6855 4.94091 12.4327 4.79519L12.4957 4.69734C12.4957 4.69734 12.7743 4.85015 12.9573 4.98204L12.8942 5.07989ZM12.2783 4.71861L12.2211 4.68316L12.3001 4.56049L12.3577 4.59594L12.2783 4.71861ZM11.6056 4.3357C11.5429 4.30131 11.4664 4.30238 11.4664 4.30238L11.5201 4.2187C11.5769 4.21126 11.6599 4.25132 11.6599 4.25132L11.6056 4.3357ZM13.8257 5.55214C13.6079 5.37133 13.2474 5.09266 12.7638 4.79448L12.7522 4.78739C12.2685 4.48887 11.8566 4.29068 11.5958 4.17651C11.5483 4.15595 11.4958 4.15347 11.448 4.1673L11.3516 4.31656C11.3922 4.31762 11.4328 4.32613 11.4712 4.34315C11.7353 4.45838 12.1519 4.65905 12.6403 4.96041L12.6526 4.96786C13.1409 5.26922 13.5054 5.55073 13.726 5.73403C13.7579 5.76062 13.7836 5.79288 13.8021 5.82763L13.8985 5.67801C13.8905 5.6305 13.8655 5.58547 13.8257 5.55214ZM13.5978 5.98256C13.5978 5.98256 13.5655 5.91449 13.5068 5.87407L13.5612 5.78969C13.5612 5.78969 13.6336 5.84571 13.6514 5.89889L13.5978 5.98256ZM12.9145 5.45748L12.8569 5.42203L12.9359 5.29935L12.9935 5.33445L12.9145 5.45748ZM12.7319 5.33197C12.7319 5.33197 12.5232 5.19299 12.2704 5.04727L12.3338 4.94907C12.3338 4.94907 12.6124 5.10187 12.7949 5.23376L12.7319 5.33197ZM12.1189 4.96644L12.0613 4.93134L12.1403 4.80831L12.1979 4.84377L12.1189 4.96644ZM11.4371 4.597C11.3744 4.56297 11.298 4.56368 11.298 4.56368L11.3516 4.48036C11.4085 4.47291 11.4914 4.51262 11.4914 4.51262L11.4371 4.597ZM13.6597 5.8099C13.442 5.62873 13.0815 5.35076 12.5982 5.05224L12.5859 5.04479C12.1026 4.74662 11.6907 4.54843 11.4295 4.43427C11.3824 4.41335 11.3295 4.41122 11.2817 4.42505L11.1857 4.57431C11.2263 4.57538 11.2668 4.58388 11.3052 4.6009C11.5693 4.71648 11.9863 4.91716 12.4743 5.21816L12.4866 5.22561C12.9746 5.52662 13.3395 5.80813 13.5597 5.99178C13.592 6.01837 13.6173 6.05028 13.6362 6.08538L13.7322 5.93612C13.7242 5.8879 13.6992 5.84323 13.6597 5.8099ZM6.53538 6.74802C6.53103 6.7505 6.52668 6.75263 6.52234 6.75511C6.64515 6.67002 6.68029 6.50516 6.59914 6.37894C6.51799 6.25272 6.35061 6.21266 6.2191 6.28463C6.22309 6.2818 6.22707 6.27861 6.23142 6.27577C6.36438 6.19387 6.54045 6.23287 6.6245 6.36334C6.70819 6.49346 6.66834 6.66577 6.53538 6.74802ZM6.21693 6.21904C6.06513 6.313 6.02311 6.51544 6.12382 6.67179C6.22454 6.82815 6.42959 6.87885 6.58175 6.78489C6.73391 6.69094 6.77557 6.4885 6.67486 6.33214C6.57414 6.17579 6.36909 6.12509 6.21693 6.21904ZM14.0064 5.34793L13.9311 5.46493C13.9311 5.46493 13.8771 5.38586 13.8311 5.37062L13.9521 5.18306C13.9521 5.18306 14.0238 5.2405 14.0064 5.34793ZM13.2681 4.90829L13.2105 4.87319L13.321 4.70159L13.3782 4.7374L13.2681 4.90829ZM13.0793 4.79236C13.0793 4.79236 12.8747 4.64699 12.6182 4.50766L12.7344 4.32684C12.7344 4.32684 13.0203 4.4683 13.196 4.61154L13.0793 4.79236ZM12.4725 4.4176L12.4149 4.38215L12.5254 4.2109L12.5826 4.24671L12.4725 4.4176ZM11.7617 4.09355C11.7277 4.05951 11.6313 4.0464 11.6313 4.0464L11.7066 3.92904C11.7983 3.86771 11.8824 3.906 11.8824 3.906L11.7617 4.09355ZM14.0043 5.12527C13.8166 4.96857 13.471 4.69876 13.0029 4.41087C12.5356 4.12191 12.1378 3.93294 11.9124 3.83438C11.8005 3.78545 11.669 3.82445 11.6034 3.92585L11.5175 4.05916C11.5581 4.05987 11.5987 4.06873 11.6371 4.0854C11.9012 4.20098 12.3182 4.40165 12.8065 4.70301C12.8105 4.70549 12.8145 4.70762 12.8185 4.7101C13.3069 5.01147 13.6717 5.29297 13.8916 5.47627C13.9238 5.50286 13.9496 5.53513 13.968 5.57023L14.0532 5.43763C14.1187 5.33587 14.0977 5.20292 14.0043 5.12527ZM4.45767 5.98256L4.40369 5.89889C4.42144 5.84571 4.4939 5.78969 4.4939 5.78969L4.54824 5.87407C4.48955 5.91449 4.45767 5.98256 4.45767 5.98256ZM5.11921 5.29935L5.19818 5.42203L5.14058 5.45748L5.0616 5.33445L5.11921 5.29935ZM5.72132 4.94907L5.78472 5.04727C5.53221 5.19299 5.32317 5.33197 5.32317 5.33197L5.26013 5.23376C5.44309 5.10187 5.72132 4.94907 5.72132 4.94907ZM5.91478 4.80831L5.99376 4.93134L5.93616 4.96644L5.85718 4.84377L5.91478 4.80831ZM6.70348 4.48036L6.7571 4.56368C6.7571 4.56368 6.68066 4.56297 6.61798 4.597L6.56364 4.51262C6.56364 4.51262 6.6466 4.47291 6.70348 4.48036ZM5.56844 5.22561L5.58076 5.21816C6.06876 4.91716 6.48575 4.71648 6.74985 4.6009C6.78825 4.58388 6.82919 4.57538 6.86977 4.57431L6.7734 4.42505C6.72558 4.41122 6.67305 4.41335 6.62559 4.43427C6.36438 4.54843 5.95246 4.74662 5.46917 5.04479L5.45686 5.05224C4.97393 5.35076 4.61309 5.62873 4.39536 5.8099C4.35587 5.84323 4.33087 5.8879 4.3229 5.93612L4.41927 6.08538C4.43775 6.05028 4.46311 6.01837 4.49535 5.99178C4.71562 5.80813 5.08044 5.52662 5.56844 5.22561ZM7.33639 6.57997C6.86361 6.75192 6.42959 7.0196 6.06731 7.3628C6.06079 7.36883 6.05499 7.37486 6.04883 7.38053L5.54489 6.5984C5.48584 6.50693 5.5141 6.38568 5.60757 6.32824L6.58067 5.728C6.67413 5.67021 6.79767 5.69751 6.85673 5.78898L7.36067 6.57146C7.3527 6.57394 7.34473 6.57678 7.33639 6.57997ZM5.57532 7.7177L4.57614 6.16692C4.57614 6.16692 4.59281 6.09566 4.66309 6.05205L5.7264 7.70316C5.7264 7.70316 5.63184 7.80527 5.57532 7.7177ZM5.31412 5.60178L5.7072 6.21195L5.64959 6.24741L5.25651 5.63759L5.31412 5.60178ZM5.91768 5.25397L6.29953 5.84642L5.83834 6.13112L5.45649 5.53832C5.66734 5.35325 5.91768 5.25397 5.91768 5.25397ZM6.10969 5.11109L6.50277 5.72126L6.44517 5.75672L6.05209 5.14655L6.10969 5.11109ZM6.87593 4.74804L7.87511 6.29917C7.93127 6.38674 7.79613 6.4261 7.79613 6.4261L6.73283 4.77534C6.80311 4.73173 6.87593 4.74804 6.87593 4.74804ZM7.40124 6.63421C7.48239 6.60691 7.54978 6.58741 7.59941 6.5743C7.67006 6.55586 7.73708 6.52679 7.79903 6.4885L7.95735 6.391C7.98996 6.37079 7.99974 6.32895 7.97909 6.29704L6.93933 4.6828C6.89151 4.66898 6.83897 4.6711 6.79152 4.69202C6.53031 4.80618 6.11839 5.00437 5.6351 5.30255L5.62894 5.30645C5.14239 5.60568 4.78011 5.88577 4.56129 6.06765C4.5218 6.10062 4.4968 6.14565 4.48883 6.19387L5.52931 7.80846C5.5496 7.84037 5.59271 7.84995 5.62496 7.82974L5.78328 7.73224C5.84523 7.69395 5.90102 7.64715 5.94848 7.59255C5.98217 7.55461 6.02927 7.5032 6.08941 7.44364C6.0952 7.43761 6.10136 7.43158 6.10752 7.42556C6.46546 7.07562 6.89948 6.80759 7.37661 6.64237C7.38494 6.63953 7.39327 6.63705 7.40124 6.63421ZM4.12401 5.46493L4.04865 5.34793C4.03126 5.2405 4.10336 5.18306 4.10336 5.18306L4.224 5.37062C4.17799 5.38586 4.12401 5.46493 4.12401 5.46493ZM4.73446 4.70159L4.84459 4.87319L4.78735 4.90829L4.67686 4.7374L4.73446 4.70159ZM5.32064 4.32684L5.43693 4.50766C5.18079 4.64699 4.97574 4.79236 4.97574 4.79236L4.85945 4.61154C5.03479 4.4683 5.32064 4.32684 5.32064 4.32684ZM5.53004 4.2109L5.64017 4.38215L5.58257 4.4176L5.47243 4.24671L5.53004 4.2109ZM6.34844 3.92904L6.4238 4.0464C6.4238 4.0464 6.32779 4.05951 6.29374 4.09355L6.17273 3.906C6.17273 3.906 6.25678 3.86771 6.34844 3.92904ZM5.23695 4.7101C5.24093 4.70762 5.24456 4.70549 5.24854 4.70301C5.7369 4.40165 6.15389 4.20098 6.418 4.0854C6.4564 4.06873 6.49698 4.05987 6.53755 4.05916L6.45205 3.92585C6.38648 3.82445 6.25461 3.78545 6.14266 3.83438C5.91768 3.93294 5.51989 4.12191 5.05218 4.41087C4.58447 4.69876 4.23849 4.96857 4.05083 5.12527C3.95736 5.20292 3.93634 5.33587 4.00192 5.43763L4.08742 5.57023C4.10589 5.53513 4.13125 5.50286 4.1635 5.47627C4.38377 5.29297 4.74859 5.01147 5.23695 4.7101ZM7.07917 7.55709C6.98969 7.61275 6.96251 7.72869 7.01903 7.81662L7.11214 7.96092H7.56608L7.344 7.61595C7.28748 7.52837 7.16865 7.50214 7.07917 7.55709ZM11.3157 7.03343C11.3154 7.03308 11.3147 7.03272 11.3143 7.03237C11.1567 6.93558 10.9911 6.85155 10.8194 6.78206C10.7832 6.92317 10.7252 7.0586 10.6448 7.1834L10.1456 7.96092H10.4086L10.6535 7.58049C10.7303 7.46172 10.8911 7.42626 11.0125 7.50107C11.1335 7.57588 11.1701 7.73295 11.0937 7.85172L11.0234 7.96092C11.0306 7.96092 11.0342 7.96092 11.0342 7.96092C11.1179 7.96092 11.2009 7.96588 11.2824 7.97616L11.4668 7.6904C11.5476 7.56596 11.6472 7.45605 11.7617 7.36316C11.6233 7.2419 11.4744 7.13164 11.3175 7.03449C11.3172 7.03414 11.3165 7.03378 11.3157 7.03343ZM12.4798 7.7177C12.4236 7.80527 12.3287 7.70316 12.3287 7.70316L13.392 6.05205C13.4623 6.09566 13.4789 6.16692 13.4789 6.16692L12.4798 7.7177ZM12.0063 7.38053C12.0005 7.37486 11.9943 7.36883 11.9878 7.3628C11.6255 7.0196 11.1915 6.75192 10.7187 6.57997C10.7107 6.57678 10.7027 6.57394 10.6944 6.57146L11.1984 5.78898C11.2574 5.69751 11.3809 5.67021 11.4744 5.728L12.4475 6.32824C12.5413 6.38568 12.5692 6.50693 12.5102 6.5984L12.0063 7.38053ZM10.259 6.4261C10.259 6.4261 10.1238 6.38674 10.18 6.29917L11.1792 4.74804C11.1792 4.74804 11.252 4.73173 11.3223 4.77534L10.259 6.4261ZM11.9454 5.11109L12.003 5.14655L11.6099 5.75672L11.5523 5.72126L11.9454 5.11109ZM12.599 5.53832L12.2171 6.13112L11.7556 5.84642L12.1374 5.25397C12.1374 5.25397 12.3877 5.35325 12.599 5.53832ZM12.7986 5.63759L12.4055 6.24741L12.3479 6.21195L12.741 5.60178L12.7986 5.63759ZM13.4938 6.06765C13.275 5.88577 12.9131 5.60568 12.4261 5.30645L12.42 5.30255C11.9371 5.00437 11.5248 4.80618 11.2639 4.69202C11.2161 4.6711 11.1636 4.66898 11.1158 4.6828L10.076 6.29704C10.0557 6.32895 10.0651 6.37079 10.0977 6.391L10.2561 6.4885C10.318 6.52679 10.385 6.55586 10.456 6.5743C10.5057 6.58741 10.5731 6.60691 10.6538 6.63421C10.6622 6.63705 10.6701 6.63953 10.6785 6.64237C11.1556 6.80759 11.5896 7.07562 11.9476 7.42556C11.9541 7.43158 11.9599 7.43761 11.9657 7.44364C12.0262 7.5032 12.0729 7.55461 12.1066 7.59255C12.1541 7.64715 12.2099 7.69395 12.2718 7.73224L12.4301 7.82974C12.4627 7.84995 12.5058 7.84037 12.5261 7.80846L13.5663 6.19387C13.5583 6.14565 13.5336 6.10062 13.4938 6.06765ZM7.90989 7.96092L7.4103 7.1834C7.33023 7.0586 7.27227 6.92317 7.23568 6.78206C7.06432 6.85155 6.89839 6.93558 6.74116 7.03237C6.74043 7.03272 6.73971 7.03308 6.73935 7.03343C6.73898 7.03378 6.73826 7.03414 6.73753 7.03449C6.58067 7.13164 6.43177 7.2419 6.29337 7.36316C6.40786 7.45605 6.50785 7.56596 6.58827 7.6904L6.77268 7.97616C6.85419 7.96588 6.93715 7.96092 7.02048 7.96092H7.03171L6.96143 7.85172C6.88499 7.73295 6.92158 7.57588 7.04294 7.50107C7.16431 7.42626 7.32516 7.46172 7.4016 7.58049L7.64651 7.96092H7.90989ZM10.9759 7.55709C10.8864 7.50214 10.7676 7.52837 10.7111 7.61595L10.489 7.96092H10.9429L11.0361 7.81662C11.0926 7.72869 11.0658 7.61275 10.9759 7.55709Z" fill="#8599B3"/>
<mask id="mask0_1_971" style="mask-type:luminance" maskUnits="userSpaceOnUse" x="0" y="9" width="9" height="9">
<path d="M0 9.6921H8.2967V17.8608H0V9.6921Z" fill="white"/>
</mask>
<g mask="url(#mask0_1_971)">
<path d="M8.26616 13.5913C8.26181 13.5852 8.25855 13.5806 8.25456 13.5746L7.94046 13.437C7.93612 13.4317 7.93285 13.4271 7.92887 13.4214C7.91329 13.2403 7.88467 13.0633 7.84373 12.8907C7.84591 12.8843 7.84736 12.879 7.84953 12.8722L8.1053 12.6471C8.11074 12.6421 8.11291 12.6347 8.1111 12.6276C8.08357 12.5333 8.05277 12.4408 8.01872 12.3493C8.01618 12.3426 8.00966 12.3376 8.00205 12.3369L7.66005 12.3014C7.65317 12.3007 7.64701 12.2965 7.64411 12.2897C7.57274 12.1238 7.48906 11.9639 7.39486 11.8111C7.39088 11.8054 7.39088 11.798 7.3945 11.792L7.56586 11.5002C7.56984 11.4941 7.56948 11.486 7.56514 11.48C7.50934 11.3988 7.45065 11.3197 7.38906 11.2428C7.38182 11.2403 7.37638 11.2385 7.3695 11.236L7.03294 11.3059C7.02642 11.3037 7.02098 11.302 7.0141 11.2995C6.89418 11.1644 6.76485 11.0375 6.62645 10.9201C6.62428 10.9137 6.62247 10.9084 6.62029 10.902L6.69166 10.5727C6.69311 10.5656 6.69022 10.5578 6.68442 10.5535C6.60617 10.4933 6.52501 10.4355 6.44241 10.3809C6.43589 10.3766 6.42792 10.3766 6.4214 10.3802L6.1236 10.5482C6.11744 10.5514 6.10983 10.5514 6.10368 10.5479C5.94753 10.4553 5.78414 10.3738 5.61459 10.3036C5.60807 10.3007 5.60336 10.2951 5.60263 10.288L5.56677 9.95329C5.56604 9.94584 5.56097 9.93981 5.55373 9.93698C5.46062 9.90365 5.3657 9.87351 5.26969 9.84692C5.26245 9.8448 5.25448 9.84692 5.24941 9.8526L5.01935 10.1026C5.01247 10.1047 5.0074 10.1065 5.00052 10.1086C4.82408 10.0682 4.6433 10.0402 4.45854 10.0253C4.45274 10.021 4.44803 10.0178 4.44223 10.0139L4.30203 9.70652C4.29587 9.70227 4.2908 9.69908 4.28464 9.69518C4.23501 9.69341 4.18501 9.69234 4.13465 9.69234C4.08466 9.69234 4.03466 9.69341 3.98467 9.69518C3.97851 9.69908 3.9738 9.70227 3.96764 9.70652L3.82744 10.0139C3.82164 10.0178 3.81693 10.021 3.81113 10.0253C3.62637 10.0402 3.44522 10.0682 3.26915 10.1086C3.26227 10.1065 3.25684 10.1047 3.25031 10.1026L3.0199 9.8526C3.01483 9.84692 3.00722 9.8448 2.99998 9.84692C2.90361 9.87351 2.80905 9.90365 2.71558 9.93698C2.7087 9.93981 2.70363 9.94584 2.7029 9.95329L2.66704 10.288C2.66595 10.2951 2.6616 10.3007 2.65508 10.3036C2.48553 10.3738 2.32178 10.4553 2.16599 10.5479C2.15984 10.5514 2.15223 10.5514 2.14607 10.5482L1.84827 10.3802C1.84175 10.3766 1.83342 10.3766 1.82726 10.3809C1.74429 10.4355 1.6635 10.4933 1.58525 10.5535C1.57909 10.5578 1.57656 10.5656 1.57801 10.5727L1.64938 10.902C1.6472 10.9084 1.64539 10.9137 1.64322 10.9201C1.50482 11.0375 1.37513 11.1644 1.25521 11.2995C1.24869 11.302 1.24325 11.3037 1.23673 11.3059L0.900169 11.236C0.892923 11.2385 0.887489 11.2403 0.880606 11.2428C0.819017 11.3197 0.760327 11.3988 0.704173 11.48C0.704173 11.487 0.70381 11.4931 0.703448 11.5002L0.875171 11.792C0.878794 11.798 0.878432 11.8054 0.874809 11.8111C0.780253 11.9639 0.696927 12.1238 0.625194 12.2897C0.619398 12.294 0.61505 12.2972 0.609254 12.3014L0.267256 12.3369C0.259648 12.3376 0.25349 12.3426 0.250954 12.3493C0.216899 12.4408 0.186104 12.5333 0.158571 12.6276C0.156397 12.6347 0.158933 12.6421 0.164367 12.6471L0.420141 12.8722C0.422315 12.879 0.423764 12.8843 0.425937 12.8907C0.384999 13.0633 0.356379 13.2403 0.3408 13.4214C0.336453 13.4271 0.333192 13.4317 0.329207 13.437L0.0151057 13.5746C0.0111205 13.5806 0.00749772 13.5852 0.00351256 13.5913C0.00170116 13.6402 0.000976562 13.6891 0.000976562 13.738C0.000976562 13.7873 0.00170116 13.8363 0.00351256 13.8848C0.00749772 13.8909 0.0111205 13.8958 0.0151057 13.9018L0.329207 14.0391C0.333192 14.0447 0.336453 14.0493 0.3408 14.055C0.356379 14.2358 0.384999 14.4127 0.425937 14.5854C0.423764 14.5918 0.422315 14.5971 0.420141 14.6038L0.164367 14.829C0.158933 14.8339 0.156397 14.8417 0.158571 14.8485C0.186104 14.9428 0.216899 15.0357 0.250954 15.1268C0.25675 15.1314 0.26146 15.1349 0.267256 15.1392L0.609254 15.1747C0.61505 15.1789 0.619398 15.1821 0.625194 15.1864C0.696927 15.3523 0.780253 15.5122 0.874809 15.665C0.878432 15.6707 0.878794 15.6781 0.875171 15.6841L0.703448 15.9759C0.699825 15.9823 0.700188 15.9901 0.704173 15.9961C0.760327 16.0773 0.819017 16.1564 0.880606 16.2333C0.885315 16.239 0.892923 16.2418 0.900169 16.2404L1.22043 16.1738C1.20884 16.1599 1.20159 16.1422 1.20087 16.1231V16.1227C1.20087 16.1199 1.20087 16.117 1.2005 16.1138C1.19869 15.8788 1.27006 15.6338 1.39831 15.4278C1.0853 14.9435 0.903067 14.3706 0.899445 13.7561C0.889663 12.0004 2.35909 10.5624 4.15313 10.572C5.92543 10.5815 7.36008 11.9855 7.37023 13.7203C7.38001 15.476 5.91058 16.9141 4.11654 16.9041C3.8796 16.9031 3.64883 16.8768 3.42675 16.8283C3.40863 16.8623 3.38907 16.8953 3.36842 16.9272C3.36733 16.9286 3.36661 16.9297 3.36588 16.9311C3.35791 16.9428 3.35067 16.9534 3.34378 16.9633C3.27676 17.0587 3.19742 17.1438 3.10794 17.2154C3.08801 17.2314 3.067 17.2473 3.04454 17.2629C2.91665 17.3625 2.79094 17.4101 2.69312 17.432L2.7029 17.5228C2.70363 17.5302 2.7087 17.5363 2.71558 17.5391C2.80905 17.5724 2.90361 17.6026 2.99998 17.6295C3.00722 17.6313 3.01483 17.6292 3.0199 17.6238L3.25031 17.3735C3.25684 17.3714 3.26227 17.3696 3.26915 17.3679C3.44522 17.4076 3.62637 17.4359 3.81113 17.4512C3.81693 17.4551 3.82128 17.4583 3.82744 17.4622L3.96764 17.7696C3.9738 17.7738 3.97851 17.777 3.98467 17.7813C4.03466 17.783 4.08466 17.7837 4.13465 17.7837C4.18501 17.7837 4.23501 17.783 4.28464 17.7813C4.2908 17.777 4.29587 17.7738 4.30203 17.7696L4.44223 17.4622C4.44803 17.4583 4.45274 17.4551 4.45854 17.4512C4.6433 17.4359 4.82408 17.4076 5.00052 17.3679C5.0074 17.3696 5.01247 17.3714 5.01935 17.3735L5.24941 17.6238C5.25448 17.6292 5.26245 17.6313 5.26969 17.6295C5.3657 17.6026 5.46062 17.5724 5.55373 17.5391C5.56097 17.5363 5.56604 17.5302 5.56677 17.5228L5.60263 17.1881C5.60336 17.181 5.60807 17.175 5.61459 17.1725C5.78414 17.1023 5.94753 17.0208 6.10368 16.9282C6.10983 16.9247 6.11744 16.9247 6.1236 16.9282L6.4214 17.0959C6.42792 17.0998 6.43589 17.0995 6.44241 17.0952C6.52501 17.0406 6.6058 16.9832 6.68442 16.9226C6.69022 16.9183 6.69311 16.9109 6.69166 16.9034L6.62029 16.5744C6.62247 16.5677 6.62428 16.5623 6.62645 16.556C6.76485 16.4386 6.89418 16.312 7.0141 16.1766C7.02098 16.1741 7.02642 16.1723 7.03294 16.1702L7.3695 16.2404C7.37675 16.2418 7.38435 16.239 7.38906 16.2333C7.45065 16.1564 7.50934 16.0773 7.56514 15.9961C7.56948 15.9901 7.56984 15.9823 7.56586 15.9759L7.3945 15.6841C7.39088 15.6781 7.39088 15.6707 7.39486 15.665C7.48906 15.5122 7.57274 15.3523 7.64411 15.1864C7.64701 15.18 7.65317 15.1754 7.66005 15.1747L8.00205 15.1392C8.00966 15.1385 8.01618 15.1335 8.01872 15.1268C8.05277 15.0357 8.08357 14.9428 8.1111 14.8485C8.11291 14.8417 8.11074 14.8339 8.1053 14.829L7.84953 14.6038C7.84736 14.5971 7.84591 14.5918 7.84373 14.5854C7.88467 14.4127 7.91329 14.2358 7.92887 14.055C7.93285 14.0493 7.93612 14.0447 7.94046 14.0391L8.25456 13.9018C8.25855 13.8958 8.26181 13.8909 8.26616 13.8848C8.26797 13.8363 8.26869 13.7873 8.26869 13.738C8.26869 13.6891 8.26797 13.6402 8.26616 13.5913Z" fill="#8599B3"/>
</g>
<path d="M13.0879 13.2835H12.3061C12.1927 13.2835 12.0894 13.2208 12.0387 13.1215L11.9605 12.9687C11.88 12.8109 11.9735 12.6213 12.1499 12.5851L13.0307 12.4053C13.2165 12.3674 13.3911 12.506 13.3911 12.6922V12.9864C13.3911 13.1506 13.2553 13.2835 13.0879 13.2835ZM14.6396 10.628V10.3334C14.6396 10.1476 14.4646 10.0086 14.2791 10.0466L13.423 10.2213L12.5292 8.90634C12.1956 8.4153 11.6369 8.12244 11.0341 8.12244H7.0207C6.41822 8.12244 5.85921 8.4153 5.52591 8.90634L4.87524 9.86361C4.89481 9.8668 4.91437 9.87034 4.93393 9.87424L5.08609 9.70867C5.13174 9.65904 5.19659 9.63103 5.26434 9.63103C5.28644 9.63103 5.30854 9.63386 5.32991 9.63989C5.43027 9.6679 5.53098 9.69981 5.62952 9.73526C5.63713 9.73774 5.64438 9.74094 5.65198 9.74484L6.00811 9.22047C6.23418 8.8879 6.61277 8.68936 7.0207 8.68936H11.0345C11.4424 8.68936 11.821 8.8879 12.0467 9.22047L13.3451 11.1307C13.4654 11.3077 13.3357 11.5441 13.1187 11.5441L9.0274 11.5445H7.78222C7.77715 11.5661 7.76846 11.5874 7.75686 11.6076L7.64311 11.8005C7.69926 11.8976 7.75143 11.9976 7.79889 12.0994L8.02532 12.1228C8.11553 12.132 8.19414 12.1919 8.2253 12.2756C8.26116 12.3717 8.29377 12.4702 8.32239 12.5688C8.34739 12.6539 8.31985 12.7478 8.25211 12.807L8.08328 12.9563C8.10538 13.0655 8.1235 13.1761 8.13618 13.2871L8.34413 13.3782C8.3818 13.3945 8.41369 13.4207 8.43687 13.4541L8.44847 13.4711C8.47129 13.5044 8.48433 13.5434 8.48578 13.5838C8.48759 13.6352 8.48868 13.6874 8.48868 13.7381C8.48868 13.7891 8.48759 13.8409 8.48578 13.8926C8.48506 13.9129 8.48143 13.9327 8.47491 13.9519H11.1225C11.1975 13.9519 11.258 14.0114 11.258 14.0845C11.258 14.1578 11.1975 14.2174 11.1225 14.2178H8.13255C8.1206 14.3156 8.10466 14.4131 8.08509 14.5099H11.1225C11.1975 14.5099 11.2584 14.5695 11.2584 14.6429C11.2584 14.7163 11.1975 14.7758 11.1225 14.7758H8.3213C8.33435 14.818 8.33543 14.8641 8.32239 14.9077C8.29377 15.0063 8.26116 15.1048 8.2253 15.2006C8.22312 15.2069 8.22023 15.213 8.21733 15.219H12.6669V15.9387C12.6669 15.9398 12.6669 15.9408 12.6669 15.9419C12.668 16.0837 12.7897 16.1965 12.9346 16.1965H14.0791C14.224 16.1965 14.3457 16.0837 14.3468 15.9419C14.3468 15.9408 14.3468 15.9398 14.3468 15.9384V12.4156C14.3468 11.8866 14.1914 11.3694 13.9001 10.9248H14.3363C14.5037 10.9248 14.6396 10.7918 14.6396 10.628Z" fill="#8599B3"/>
<path d="M3.95585 12.9187L4.19568 13.0861L4.31777 12.9184C4.38045 12.8322 4.3598 12.7131 4.27213 12.6521C4.18445 12.5911 4.06273 12.611 4.00005 12.6971L3.87289 12.8719C3.90151 12.8847 3.9294 12.9003 3.95585 12.9187ZM3.69754 14.6663C3.69428 14.6684 3.68993 14.6702 3.68522 14.673C3.68088 14.6762 3.67581 14.6794 3.67001 14.6829C3.66457 14.6868 3.65842 14.6915 3.65189 14.6964C3.64574 14.7021 3.63885 14.7074 3.63233 14.7138C3.62907 14.7173 3.62545 14.7209 3.62219 14.7241C3.61856 14.7276 3.6153 14.7319 3.61204 14.7354C3.61023 14.7375 3.60842 14.7397 3.60661 14.7414C3.60516 14.7439 3.60335 14.7457 3.6019 14.7478C3.59864 14.7524 3.59502 14.7563 3.59175 14.7613C3.57799 14.7794 3.56567 14.801 3.55408 14.824C3.54212 14.8475 3.53162 14.8726 3.5222 14.8992C3.51749 14.9127 3.51314 14.9265 3.50915 14.9403C3.50481 14.9552 3.50082 14.9691 3.4972 14.9839C3.48959 15.0137 3.48162 15.0442 3.47401 15.0744C3.46604 15.1048 3.45735 15.1357 3.44684 15.1658C3.44177 15.1807 3.43633 15.1956 3.43018 15.2101C3.42402 15.2247 3.4175 15.2389 3.41025 15.2523C3.40663 15.2594 3.40264 15.2662 3.39902 15.2725L3.39612 15.2779L3.39322 15.2825C3.39105 15.2857 3.38924 15.2885 3.38743 15.2917C3.38344 15.2977 3.37873 15.3041 3.37475 15.3101C3.3704 15.3162 3.36605 15.3218 3.3617 15.3271C3.34359 15.3495 3.32475 15.3683 3.30627 15.3846C3.2878 15.4009 3.26932 15.414 3.25229 15.425C3.23563 15.4353 3.22041 15.4434 3.20737 15.4495C3.20121 15.4527 3.19541 15.4551 3.19034 15.4573C3.18527 15.4594 3.18056 15.4608 3.1773 15.4622C3.17005 15.4651 3.16643 15.4661 3.16643 15.4661C3.16643 15.4661 3.16969 15.464 3.17549 15.4597C3.18201 15.4555 3.1907 15.4488 3.20157 15.4402C3.21244 15.4321 3.22512 15.4207 3.23925 15.4083C3.25338 15.3952 3.26787 15.38 3.28309 15.3626C3.29794 15.3449 3.31316 15.3254 3.32729 15.3034C3.33091 15.2981 3.33417 15.2924 3.33743 15.2867C3.34069 15.2811 3.34395 15.2754 3.34721 15.2694C3.34902 15.2662 3.35047 15.263 3.35228 15.2598L3.35482 15.2552L3.35663 15.2509C3.35953 15.2445 3.36279 15.2385 3.36533 15.2318C3.37112 15.219 3.37656 15.2055 3.38127 15.1921C3.38634 15.1782 3.39105 15.1641 3.3954 15.1499C3.40409 15.1208 3.41206 15.091 3.42003 15.0609C3.428 15.0307 3.43561 14.9999 3.44467 14.9701C3.44938 14.9549 3.45409 14.9396 3.45916 14.9254C3.46423 14.9106 3.46966 14.896 3.47619 14.8822C3.48814 14.8538 3.50227 14.8276 3.51749 14.8038C3.5327 14.7801 3.54937 14.7588 3.56676 14.7411C3.58415 14.7237 3.6019 14.7088 3.61893 14.6978C3.62291 14.6946 3.62726 14.6925 3.63124 14.6904C3.63523 14.6879 3.63921 14.6854 3.6432 14.6833C3.65081 14.6798 3.65805 14.6766 3.66457 14.6734C3.67146 14.6709 3.67762 14.6688 3.68269 14.667C3.68812 14.6652 3.69283 14.6645 3.69646 14.6634C3.7037 14.6617 3.70769 14.661 3.70769 14.661C3.70769 14.661 3.70406 14.6627 3.69754 14.6663ZM4.77715 14.2578C4.69926 14.2036 4.67173 14.105 4.70506 14.0214C4.62318 14.0731 4.51341 14.0742 4.429 14.0157C4.33082 13.9469 4.2993 13.82 4.34966 13.7168C4.3598 13.6959 4.35328 13.6704 4.33408 13.6569C4.32828 13.659 4.32248 13.6608 4.31669 13.6626C4.20619 13.6955 4.08519 13.6672 3.95766 13.5782C3.94861 13.5718 3.93955 13.5654 3.93049 13.5587C3.91238 13.5449 3.89499 13.5321 3.87832 13.5204C3.73051 13.4176 3.69138 13.4339 3.69102 13.4339C3.68414 13.4399 3.68341 13.4739 3.68921 13.4991C3.70044 13.5229 3.75188 13.6392 3.7921 13.781C3.80116 13.8147 3.80949 13.8469 3.81601 13.8778C3.8555 14.0802 3.80731 14.2068 3.74428 14.2841C3.74536 14.272 3.74862 14.2603 3.75442 14.2493C3.87506 14.0146 3.64103 13.5151 3.64103 13.5151C3.64103 13.5151 3.5606 13.2155 3.96165 13.5193C4.3627 13.8232 4.53406 13.3825 4.53406 13.3825L3.92651 12.9591C3.7642 12.846 3.54357 12.8556 3.3925 12.9829C3.2762 13.0808 3.15774 13.1907 3.05738 13.3048C2.99181 13.38 2.95884 13.4771 2.965 13.5761C2.97406 13.7246 2.99471 13.9614 3.03818 14.1728C3.04181 14.1869 3.04615 14.205 3.05195 14.2256C3.05557 14.2391 3.05956 14.2536 3.06427 14.2688C3.0668 14.2763 3.06898 14.2841 3.07151 14.2922C3.07405 14.3 3.07695 14.3082 3.07948 14.3167C3.08093 14.3206 3.08238 14.3249 3.08383 14.3291C3.08528 14.333 3.08673 14.3373 3.08818 14.3415C3.09144 14.35 3.09434 14.3585 3.0976 14.367C3.10412 14.3841 3.111 14.4014 3.11825 14.4188C3.12187 14.4273 3.12549 14.4358 3.12912 14.4443C3.1331 14.4528 3.13672 14.4614 3.14071 14.4695C3.14469 14.4777 3.14868 14.4858 3.15266 14.494C3.15484 14.4979 3.15665 14.5021 3.15846 14.506C3.16064 14.5099 3.16281 14.5138 3.16498 14.5177C3.16933 14.5252 3.17332 14.533 3.1773 14.5404C3.17947 14.544 3.18129 14.5475 3.18346 14.5511C3.18563 14.555 3.18781 14.5581 3.18998 14.5617C3.19397 14.5688 3.19795 14.5752 3.2023 14.5815C3.20628 14.5883 3.20991 14.5943 3.21425 14.6003C3.22222 14.6117 3.22947 14.6223 3.23635 14.6315C3.23925 14.6365 3.24287 14.6404 3.24613 14.6443C3.2494 14.6482 3.25229 14.6517 3.25483 14.6549C3.26534 14.6677 3.27113 14.6751 3.27113 14.6751C3.27113 14.6751 3.26461 14.6684 3.25229 14.6571C3.2494 14.6542 3.24613 14.651 3.24251 14.6475C3.23889 14.6439 3.2349 14.6404 3.23092 14.6358C3.22331 14.6273 3.21462 14.6174 3.20483 14.6067C3.20012 14.6018 3.19541 14.5957 3.1907 14.5897C3.186 14.5837 3.18092 14.5773 3.17585 14.5709C3.17332 14.5677 3.17078 14.5645 3.16788 14.561C3.16534 14.5578 3.16317 14.5542 3.16064 14.5507C3.15556 14.544 3.15049 14.5365 3.14506 14.5294C3.14252 14.5255 3.13998 14.522 3.13709 14.5184C3.13491 14.5145 3.13238 14.5106 3.12984 14.5067C3.12477 14.4989 3.1197 14.4911 3.11462 14.4833C3.10919 14.4752 3.10448 14.467 3.09977 14.4589C3.09506 14.4507 3.08999 14.4426 3.08528 14.4344C3.07876 14.4227 3.07224 14.411 3.06608 14.3997L3.06209 14.4043C2.80306 14.7127 2.44838 14.8528 2.07885 14.9914C1.86039 15.0733 1.66548 15.2087 1.52781 15.3949C1.37674 15.598 1.28798 15.8607 1.28979 16.1132C1.28979 16.1149 1.29016 16.1171 1.29016 16.1188C1.28979 16.1167 1.29016 16.1146 1.29016 16.1121C1.29921 16.0887 1.5184 15.5367 2.16834 15.3158C2.17848 15.3126 2.18862 15.3094 2.19877 15.3062C2.23427 15.2956 2.27231 15.2839 2.3118 15.2743C2.40201 15.2516 2.49765 15.2399 2.57953 15.2779C2.69619 15.3325 2.67553 15.492 2.63858 15.5895C2.46287 16.0543 1.75642 15.6172 1.33037 16.5127C0.929319 17.3558 1.5289 17.7097 0.863383 18.1277C0.824257 18.1525 0.781869 18.1731 0.73767 18.1876C0.706514 18.1979 0.672459 18.2057 0.63623 18.2103C0.63623 18.2103 0.714484 18.2149 0.825343 18.1841C0.826793 18.1841 0.828242 18.1841 0.829691 18.1837C0.83911 18.1805 0.849254 18.1773 0.859761 18.1738C0.931131 18.1507 1.01337 18.1124 1.09597 18.0511C1.09706 18.0504 1.09742 18.0497 1.09851 18.0493C1.09887 18.049 1.09923 18.049 1.09959 18.0486C1.26226 17.9277 1.42493 17.7164 1.4655 17.3488C1.48905 17.1371 1.54339 16.8453 1.74736 16.7106C1.89119 16.6152 2.15312 16.6099 2.21724 16.7765C2.30093 16.9935 1.98647 17.3814 1.74301 17.4243C1.74229 17.4243 1.74156 17.4246 1.74084 17.4246L1.6836 17.4275C1.6836 17.4275 2.03139 17.5562 2.32557 17.2715C2.40563 17.2006 2.47519 17.1158 2.53533 17.0293C2.62011 16.9063 2.68749 16.7733 2.74654 16.6386C2.79944 16.5181 2.82552 16.3231 2.95268 16.2536C3.14759 16.1472 3.18708 16.4011 3.18926 16.5273C3.19505 16.8652 2.94037 17.1204 2.76611 17.2555C2.69437 17.3112 2.60924 17.3484 2.51903 17.3622C2.51794 17.3626 2.51722 17.3626 2.51649 17.3626C2.51649 17.3626 2.74763 17.3821 2.98964 17.1942H2.98927C3.01029 17.1793 3.0313 17.164 3.05122 17.1481C3.13491 17.0807 3.20882 17.0013 3.27077 16.9137C3.27802 16.9035 3.2849 16.8928 3.29178 16.8822C3.29214 16.8818 3.29251 16.8815 3.29287 16.8811C3.35917 16.7797 3.40953 16.6695 3.44612 16.5564C3.49937 16.3908 3.52365 16.2199 3.53017 16.0511C3.53017 16.0504 3.53017 16.0497 3.53017 16.049C3.54647 15.6296 3.91636 15.0471 4.35292 14.9453C4.47102 14.9173 4.5779 14.8482 4.65108 14.7478L5.00068 14.2671C4.93294 14.3061 4.84526 14.3054 4.77715 14.2578ZM2.41469 12.6195C2.42338 12.6206 2.43643 12.6241 2.45345 12.6262C2.46179 12.6269 2.47084 12.6284 2.48099 12.6294C2.49113 12.6305 2.502 12.6308 2.51359 12.6315C2.52519 12.6326 2.53787 12.6319 2.55091 12.6319C2.56395 12.6319 2.57772 12.6312 2.59185 12.6298C2.62047 12.628 2.65126 12.6227 2.68314 12.6159C2.69872 12.612 2.71502 12.6071 2.73133 12.6025C2.74727 12.5965 2.76393 12.5918 2.78024 12.584C2.8132 12.5713 2.84436 12.5521 2.87588 12.533C2.88349 12.5277 2.89109 12.5224 2.8987 12.517L2.90993 12.5089L2.9208 12.5L2.94218 12.4823L2.96247 12.4628C2.97659 12.4504 2.98819 12.4355 3.00087 12.422C3.0121 12.4078 3.02478 12.3922 3.0342 12.3777C3.05485 12.3479 3.07332 12.3164 3.08673 12.2845C3.1005 12.2525 3.11209 12.2206 3.11933 12.1891C3.12694 12.1582 3.13165 12.1285 3.13383 12.1004C3.13455 12.0934 3.13491 12.0866 3.13564 12.0795C3.13564 12.0731 3.13564 12.0664 3.136 12.06C3.13672 12.0473 3.136 12.0352 3.13564 12.0239C3.13564 12.0122 3.13419 12.0015 3.13346 11.992C3.13274 11.9817 3.13129 11.9728 3.12984 11.9647C3.12767 11.9483 3.12513 11.9352 3.12332 11.9267C3.12151 11.9179 3.12042 11.9132 3.12042 11.9132C3.12042 11.9132 3.12223 11.9179 3.12477 11.9264C3.12767 11.9349 3.13201 11.9473 3.13564 11.9636C3.13781 11.9717 3.13999 11.9806 3.14143 11.9905C3.14325 12.0005 3.14578 12.0111 3.14687 12.0228C3.14832 12.0345 3.14977 12.0469 3.15049 12.0597C3.15085 12.0664 3.15122 12.0731 3.15158 12.0799C3.15122 12.087 3.15122 12.0941 3.15122 12.1012C3.15158 12.1157 3.14977 12.1306 3.14868 12.1462C3.14651 12.1618 3.14506 12.1777 3.14107 12.194C3.13528 12.2267 3.12513 12.2607 3.11136 12.294C3.0976 12.3284 3.08021 12.3617 3.05811 12.3937C3.04724 12.4107 3.03601 12.4245 3.02369 12.4405C3.01029 12.4546 2.99833 12.4702 2.98384 12.4837L2.96247 12.5036L2.93928 12.5224L2.92805 12.5316L2.91609 12.5401C2.90812 12.5458 2.90015 12.5514 2.89218 12.5567C2.87515 12.5663 2.85921 12.5773 2.84182 12.5851C2.83313 12.5894 2.8248 12.5933 2.8161 12.5975C2.80741 12.6011 2.79871 12.6043 2.79002 12.6078C2.77335 12.6156 2.7556 12.6198 2.73857 12.6255C2.72118 12.6298 2.70416 12.634 2.68785 12.6372C2.65416 12.6432 2.62228 12.6468 2.59293 12.6468C2.57808 12.6468 2.56395 12.6471 2.55055 12.6461C2.53714 12.645 2.52446 12.6443 2.51287 12.6425C2.50091 12.6408 2.48968 12.6393 2.47954 12.6376C2.46976 12.6354 2.46034 12.6333 2.452 12.6315C2.44367 12.6301 2.43643 12.628 2.43027 12.6259C2.42375 12.6237 2.41867 12.6223 2.41433 12.6209C2.40563 12.6181 2.40092 12.617 2.40092 12.617C2.40092 12.617 2.40563 12.6177 2.41469 12.6195ZM2.50888 12.701C2.72227 12.7081 2.92841 12.7794 3.09434 12.9116L3.25555 13.0396C3.28925 13.0091 3.32475 12.9783 3.36134 12.9478C3.37076 12.94 3.38018 12.9326 3.38996 12.9255L3.307 12.8595C3.24324 12.8088 3.23345 12.7173 3.28526 12.6549C3.33707 12.5926 3.4309 12.583 3.4943 12.6337L3.75478 12.8404C3.77942 12.8446 3.80369 12.8507 3.8276 12.8581C3.82869 12.8535 3.83123 12.8492 3.83412 12.845L3.90875 12.7422L3.46097 12.3862C3.31606 12.271 3.21498 12.1104 3.17947 11.931C3.16426 11.8551 3.13528 11.7806 3.09071 11.7112C2.98819 11.5505 2.82588 11.4491 2.64945 11.4176C2.61684 11.4116 2.59257 11.447 2.60996 11.4743L2.7393 11.6768C2.85052 11.8508 2.8027 12.0824 2.62663 12.1944C2.44693 12.3086 2.2071 12.2557 2.09407 12.0788L1.96147 11.8711C1.94372 11.8434 1.90061 11.8498 1.89191 11.8813C1.84481 12.0466 1.8651 12.2291 1.96183 12.3873C2.08139 12.5826 2.29151 12.6936 2.50888 12.701ZM6.19949 14.3146C6.19043 14.3132 6.17739 14.31 6.16072 14.3078C6.15239 14.3071 6.14297 14.3057 6.13319 14.3046C6.12304 14.3036 6.11181 14.3032 6.10022 14.3025C6.08863 14.3015 6.07595 14.3018 6.06327 14.3022C6.04986 14.3018 6.03646 14.3029 6.02197 14.3043C5.99334 14.3061 5.96291 14.311 5.93103 14.3181C5.91509 14.322 5.89915 14.3266 5.88285 14.3316C5.86691 14.3376 5.84988 14.3422 5.83394 14.35C5.80061 14.3628 5.76945 14.3816 5.73793 14.4011C5.73033 14.4064 5.72272 14.4114 5.71547 14.417L5.70388 14.4252L5.69337 14.4341L5.67164 14.4518L5.65135 14.4713C5.63758 14.4837 5.62599 14.4986 5.61331 14.5121C5.60208 14.5262 5.58903 14.5415 5.57962 14.5564C5.55933 14.5862 5.54085 14.6177 5.52708 14.6496C5.51332 14.6815 5.50172 14.7134 5.49448 14.7446C5.48687 14.7758 5.48216 14.8056 5.47999 14.8336C5.47962 14.8407 5.4789 14.8475 5.47854 14.8542C5.47818 14.8609 5.47818 14.8673 5.47818 14.874C5.47745 14.8868 5.47781 14.8989 5.47818 14.9102C5.47854 14.9219 5.47962 14.9325 5.48071 14.9421C5.48144 14.9524 5.48288 14.9613 5.48397 14.9694C5.48615 14.9857 5.48868 14.9985 5.49086 15.0073C5.4923 15.0159 5.49339 15.0208 5.49339 15.0208C5.49339 15.0208 5.49194 15.0162 5.48904 15.0077C5.48615 14.9992 5.4818 14.9868 5.47818 14.9705C5.47636 14.9623 5.47419 14.9535 5.47238 14.9435C5.47057 14.9336 5.46839 14.923 5.46731 14.9113C5.46586 14.8996 5.46405 14.8872 5.46368 14.874C5.46332 14.8677 5.46296 14.8609 5.4626 14.8538C5.4626 14.8471 5.4626 14.84 5.46296 14.8329C5.4626 14.8184 5.46441 14.8031 5.46513 14.7879C5.46767 14.7723 5.46876 14.756 5.47274 14.74C5.47854 14.7074 5.48904 14.6734 5.50281 14.6397C5.51621 14.6057 5.5336 14.5723 5.5557 14.5404C5.56657 14.5234 5.5778 14.5096 5.59012 14.4936C5.60353 14.4794 5.61548 14.4638 5.63033 14.4504L5.65171 14.4305L5.67453 14.4114L5.68576 14.4021L5.69808 14.394C5.70605 14.3883 5.71402 14.3826 5.72199 14.3773C5.73902 14.3674 5.75496 14.3568 5.77235 14.349C5.78068 14.3447 5.78938 14.3405 5.79771 14.3366C5.80641 14.333 5.8151 14.3295 5.8238 14.3263C5.84082 14.3185 5.85857 14.3142 5.8756 14.3085C5.89263 14.3043 5.90966 14.3 5.92632 14.2968C5.95965 14.2908 5.99153 14.2873 6.02124 14.2873C6.03573 14.2873 6.04986 14.2869 6.06327 14.288C6.07667 14.289 6.08935 14.2894 6.10131 14.2915C6.1129 14.2933 6.12413 14.2947 6.13427 14.2965C6.14442 14.2986 6.15347 14.3007 6.16181 14.3025C6.1705 14.3039 6.17775 14.3061 6.18391 14.3082C6.19007 14.3103 6.1955 14.3117 6.19985 14.3132C6.20854 14.3156 6.21325 14.3171 6.21325 14.3171C6.21325 14.3171 6.20818 14.3163 6.19949 14.3146ZM6.65198 14.5464C6.53243 14.3514 6.32266 14.2405 6.10529 14.233C5.89154 14.2259 5.6854 14.1543 5.51948 14.0224L5.31478 13.8597L5.21298 13.9997L5.30718 14.0745C5.37058 14.1249 5.38036 14.2167 5.32891 14.2791C5.27711 14.3415 5.18327 14.3511 5.11951 14.3004L5.06589 14.2578L4.96409 14.3975L5.15284 14.5479C5.29812 14.6631 5.3992 14.8237 5.4347 15.0031C5.44955 15.079 5.4789 15.1534 5.5231 15.2229C5.62563 15.3835 5.78829 15.4849 5.96436 15.5165C5.99733 15.5225 6.0216 15.487 6.00385 15.4594L5.87452 15.2573C5.76366 15.0832 5.81148 14.8513 5.98755 14.7397C6.16724 14.6255 6.40671 14.6783 6.51975 14.8552L6.65234 15.0627C6.67009 15.0907 6.71321 15.0843 6.72226 15.0527C6.769 14.8875 6.74907 14.7046 6.65198 14.5464ZM4.77063 14.0068C4.721 14.0749 4.7373 14.1692 4.8065 14.2178C4.87606 14.266 4.97242 14.25 5.02206 14.1823L5.36007 13.7175C5.4097 13.6494 5.3934 13.5548 5.32384 13.5066C5.25428 13.4583 5.15791 13.4743 5.10828 13.542L4.77063 14.0068ZM4.57717 13.3516L4.74817 13.1166C4.81048 13.0308 4.79019 12.9116 4.70216 12.8507C4.61449 12.7893 4.49276 12.8092 4.43045 12.8953L4.25945 13.13L4.57717 13.3516ZM4.76266 13.2282L4.41269 13.709C4.35038 13.7948 4.37067 13.9139 4.45834 13.9749C4.54601 14.0363 4.6681 14.016 4.73042 13.9302L5.08002 13.4495C5.1427 13.3633 5.12205 13.2442 5.03438 13.1832C4.9467 13.1222 4.82497 13.1421 4.76266 13.2282Z" fill="#8599B3"/>
<mask id="mask1_1_971" style="mask-type:luminance" maskUnits="userSpaceOnUse" x="9" y="0" width="11" height="21">
<path d="M9.22412 0H19.9999V21H9.22412V0Z" fill="white"/>
</mask>
<g mask="url(#mask1_1_971)">
<path d="M9.27881 18.8762C14.0016 18.8762 17.8436 15.1163 17.8436 10.4945C17.8436 5.87261 14.0016 2.11268 9.27881 2.11268V0.00242901C9.40887 0.00242901 9.53857 0.00455623 9.66754 0.00916528C9.68384 0.0198016 9.69616 0.0279562 9.71246 0.0385925L10.0762 0.835607C10.0914 0.845889 10.1034 0.854398 10.1182 0.86468C10.5972 0.904034 11.0667 0.977071 11.5239 1.08131C11.5416 1.07563 11.5554 1.07138 11.5728 1.06606L12.1698 0.417246C12.1829 0.403064 12.2028 0.397391 12.2217 0.402355C12.4713 0.4722 12.7173 0.550554 12.9589 0.636708C12.9774 0.643445 12.9901 0.659399 12.9922 0.678544L13.0857 1.54682C13.0875 1.56455 13.0995 1.58015 13.1165 1.58689C13.5563 1.76912 13.9802 1.98078 14.3849 2.22046C14.4008 2.23003 14.4204 2.23003 14.4363 2.22117L15.2091 1.78614C15.2261 1.77657 15.2467 1.77728 15.263 1.78791C15.4782 1.92938 15.6876 2.07864 15.8912 2.23499C15.9065 2.24669 15.9137 2.26619 15.9094 2.28463L15.7242 3.13873C15.73 3.15574 15.7347 3.16922 15.7405 3.18623C16.0996 3.49043 16.4358 3.81945 16.7462 4.17045C16.764 4.17648 16.7778 4.18109 16.7951 4.1864L17.6675 4.00523C17.686 4.01161 17.7001 4.01693 17.7186 4.02331C17.878 4.22257 18.0305 4.42749 18.1755 4.63774C18.1762 4.65688 18.1769 4.67177 18.1773 4.69092L17.7327 5.44716C17.7237 5.46276 17.7237 5.48191 17.7335 5.49715C17.9784 5.89353 18.1947 6.30799 18.3805 6.73877C18.3954 6.7494 18.407 6.75791 18.4218 6.7689L19.3087 6.86037C19.3282 6.8625 19.3449 6.87491 19.3514 6.89264C19.4398 7.12947 19.5199 7.37021 19.5909 7.61414C19.5963 7.63257 19.5905 7.65243 19.576 7.66519L18.9127 8.24912C18.9073 8.2665 18.9029 8.27997 18.8975 8.29699C19.004 8.74442 19.0783 9.20391 19.1185 9.67297C19.1294 9.68751 19.1377 9.69921 19.1482 9.7141L19.963 10.0701C19.9738 10.0857 19.9822 10.0981 19.993 10.1137C19.9977 10.2402 19.9999 10.3668 19.9999 10.4945C19.9999 10.6217 19.9977 10.7487 19.993 10.8749C19.9822 10.8908 19.9738 10.9029 19.963 10.9188L19.1482 11.2748C19.1377 11.2897 19.1294 11.301 19.1185 11.3159C19.0783 11.7846 19.004 12.2441 18.8975 12.6916C18.9029 12.7089 18.9073 12.7224 18.9127 12.7398L19.576 13.3237C19.5905 13.3365 19.5963 13.3563 19.5909 13.3748C19.5199 13.6187 19.4398 13.8594 19.3514 14.0959C19.3362 14.1076 19.3243 14.1168 19.3087 14.1285L18.4218 14.22C18.407 14.231 18.3954 14.2391 18.3805 14.2501C18.1947 14.6806 17.9784 15.0954 17.7335 15.4914C17.7237 15.507 17.7237 15.5261 17.7327 15.5417L18.1773 16.298C18.187 16.3146 18.1863 16.3352 18.1755 16.3508C18.0305 16.5614 17.878 16.7663 17.7186 16.9656C17.7063 16.9805 17.6867 16.9876 17.6675 16.9837L16.7951 16.8021C16.7778 16.8078 16.764 16.8124 16.7466 16.8185C16.4358 17.1695 16.0996 17.4985 15.7409 17.8027C15.7347 17.8197 15.73 17.8332 15.7242 17.8502L15.9097 18.7043C15.9137 18.7227 15.9065 18.7422 15.8912 18.7536C15.6876 18.9099 15.4782 19.0592 15.263 19.201C15.2471 19.2116 15.2261 19.2123 15.2091 19.2028L14.4363 18.7677C14.4204 18.7585 14.4008 18.7589 14.3849 18.7684C13.9802 19.0078 13.5563 19.2198 13.1165 19.4017C13.0995 19.4088 13.0875 19.424 13.0857 19.4421L12.9922 20.3104C12.9901 20.3291 12.9774 20.3455 12.9589 20.3522C12.7173 20.4383 12.4713 20.5167 12.2217 20.5862C12.2032 20.5915 12.1829 20.5858 12.1698 20.5717L11.5732 19.9228C11.5554 19.9172 11.5416 19.9129 11.5239 19.9076C11.0667 20.0115 10.5972 20.0845 10.1182 20.1239C10.1034 20.1345 10.0914 20.1427 10.0762 20.1533L9.71246 20.95C9.69616 20.9609 9.68384 20.9691 9.66754 20.9797C9.53857 20.9843 9.40887 20.9865 9.27881 20.9865V18.8762Z" fill="#8599B3"/>
</g>
</svg>
