<svg width="132" height="132" viewBox="0 0 132 132" fill="none" xmlns="http://www.w3.org/2000/svg">
<path d="M62.3732 11.5849C64.5324 10.8192 66.9408 10.8037 69.1388 11.5478L105.645 23.7959C109.731 25.1604 112.495 28.9143 112.517 33.121L112.749 69.6445C112.821 80.717 108.785 91.4555 101.393 99.8691C97.993 103.731 93.6351 107.047 88.0704 110.014L68.4474 120.504C67.8328 120.827 67.1568 120.995 66.4757 121C65.7949 121.005 65.114 120.843 64.505 120.525L44.6984 110.277C39.0729 107.36 34.6762 104.092 31.2433 100.284C23.7296 91.9569 19.5546 81.2672 19.4826 70.1787L19.2501 33.6816C19.2281 29.4695 21.9418 25.6889 26.006 24.2705L62.3732 11.5849ZM86.5968 50.7021C84.9634 49.1327 82.3331 49.1443 80.7218 50.7353L62.1945 68.997L54.6085 61.705C52.9751 60.1357 50.3513 60.1521 48.7345 61.7431C47.1232 63.3341 47.1392 65.8905 48.7726 67.4599L59.3097 77.5986C60.1292 78.386 61.1929 78.7744 62.256 78.7636C63.3189 78.7581 64.3764 78.3595 65.1847 77.5615L86.63 56.4199C88.2413 54.8288 88.2247 52.2716 86.5968 50.7021Z" fill="#2B63A8"/>
</svg>
